<svg xmlns="http://www.w3.org/2000/svg" viewBox="0 0 900 500" width="900" height="500"
     font-family="'Pretendard','Noto Sans KR','Apple SD Gothic Neo','Nanum Myeongjo',serif">
  <defs>
    <radialGradient id="paperBg" cx="50%" cy="40%" r="80%">
      <stop offset="0%" stop-color="#FBF3DE"/>
      <stop offset="100%" stop-color="#F1E5C6"/>
    </radialGradient>
    <filter id="grain" x="0" y="0" width="100%" height="100%">
      <feTurbulence type="fractalNoise" baseFrequency="0.9" numOctaves="2" seed="3"/>
      <feColorMatrix values="0 0 0 0 0.7
                             0 0 0 0 0.6
                             0 0 0 0 0.4
                             0 0 0 0.08 0"/>
      <feComposite in2="SourceGraphic" operator="in"/>
    </filter>
    <!-- Rice stalk symbol -->
    <symbol id="riceStalk" viewBox="0 0 100 200">
      <!-- stem -->
      <path d="M50,200 Q48,140 52,80 Q54,40 50,5" stroke="#7A8B3F" stroke-width="2.5" fill="none" stroke-linecap="round"/>
      <!-- leaves -->
      <path d="M50,170 Q20,150 8,120" stroke="#9BAB52" stroke-width="3" fill="none" stroke-linecap="round"/>
      <path d="M50,150 Q80,135 92,108" stroke="#9BAB52" stroke-width="3" fill="none" stroke-linecap="round"/>
      <path d="M50,120 Q22,100 14,72" stroke="#A8B85F" stroke-width="3" fill="none" stroke-linecap="round"/>
      <!-- grains (drops) -->
      <g fill="#E0A82E">
        <ellipse cx="46" cy="14" rx="4" ry="7" transform="rotate(-12 46 14)"/>
        <ellipse cx="40" cy="26" rx="4" ry="7" transform="rotate(-18 40 26)"/>
        <ellipse cx="56" cy="22" rx="4" ry="7" transform="rotate(12 56 22)"/>
        <ellipse cx="36" cy="40" rx="4" ry="7" transform="rotate(-22 36 40)"/>
        <ellipse cx="60" cy="38" rx="4" ry="7" transform="rotate(18 60 38)"/>
        <ellipse cx="44" cy="52" rx="4" ry="7" transform="rotate(-14 44 52)"/>
        <ellipse cx="58" cy="56" rx="4" ry="7" transform="rotate(14 58 56)"/>
      </g>
      <g fill="#D86B47">
        <ellipse cx="50" cy="8" rx="3.5" ry="6"/>
        <ellipse cx="48" cy="34" rx="3.5" ry="6" transform="rotate(-10 48 34)"/>
        <ellipse cx="52" cy="46" rx="3.5" ry="6" transform="rotate(8 52 46)"/>
      </g>
      <g fill="#C7B25B">
        <ellipse cx="42" cy="20" rx="3" ry="5" transform="rotate(-18 42 20)"/>
        <ellipse cx="54" cy="30" rx="3" ry="5" transform="rotate(14 54 30)"/>
      </g>
    </symbol>
  </defs>

  <!-- paper background -->
  <rect x="0" y="0" width="900" height="500" rx="20" fill="url(#paperBg)"/>
  <rect x="0" y="0" width="900" height="500" rx="20" fill="#000" filter="url(#grain)" opacity="0.35"/>

  <!-- rice stalks in corners -->
  <use href="#riceStalk" x="20" y="-10" width="120" height="240" transform="rotate(-8 80 110)"/>
  <use href="#riceStalk" x="760" y="-10" width="120" height="240" transform="rotate(10 820 110)"/>

  <!-- top label "덕담" stamp -->
  <g transform="translate(450,52)">
    <rect x="-44" y="-22" width="88" height="44" rx="6" fill="none" stroke="#D86B47" stroke-width="2"/>
    <text x="0" y="9" text-anchor="middle" font-size="22" font-weight="700" fill="#D86B47" letter-spacing="8">덕담</text>
  </g>

  <!-- divider dashed -->
  <line x1="120" y1="135" x2="780" y2="135" stroke="#C9B884" stroke-width="1.5" stroke-dasharray="3 6"/>

  <!-- Name block -->
  <g transform="translate(90,205)">
    <text x="0" y="0" font-size="68" font-weight="800" fill="#3B4A3E" letter-spacing="6"
          font-family="'Nanum Myeongjo','Noto Serif KR',serif">동 훈</text>
    <text x="6" y="34" font-size="14" font-weight="600" fill="#7A8B3F" letter-spacing="4">DONG  HUN</text>

    <!-- role -->
    <g transform="translate(0,76)">
      <circle cx="6" cy="-6" r="6" fill="#D86B47"/>
      <text x="24" y="0" font-size="20" font-weight="700" fill="#3B4A3E">커뮤니티 빌더</text>
      <text x="24" y="22" font-size="12" font-style="italic" fill="#8C7A4B" letter-spacing="2">Community Builder</text>
    </g>
  </g>

  <!-- handwritten-feel intro -->
  <g transform="translate(90,360)">
    <text x="0" y="0" font-size="17" font-weight="500" fill="#5A4A2E" font-style="italic"
          font-family="'Nanum Pen Script','Gaegu','Noto Serif KR',cursive">
      "사람과 사람이 자연스럽게 만나는 자리를 만듭니다."
    </text>
  </g>

  <!-- contact column (right) -->
  <g transform="translate(540,205)" font-size="13.5" font-weight="500" fill="#3B4A3E">
    <g>
      <circle cx="0" cy="-4" r="5" fill="#E58B95"/>
      <text x="14" y="0">010-3248-6230</text>
    </g>
    <g transform="translate(0,28)">
      <circle cx="0" cy="-4" r="5" fill="#3F8B82"/>
      <text x="14" y="0">dogdoh1338@icloud.com</text>
    </g>
    <g transform="translate(0,56)">
      <circle cx="0" cy="-4" r="5" fill="#D4A93C"/>
      <text x="14" y="0">@dogdoh1338</text>
    </g>
    <g transform="translate(0,84)">
      <circle cx="0" cy="-4" r="5" fill="#7A8B3F"/>
      <text x="14" y="0" font-size="12" fill="#8C7A4B">청년마을 · Community</text>
    </g>
  </g>

  <!-- bottom divider -->
  <line x1="90" y1="410" x2="810" y2="410" stroke="#C9B884" stroke-width="1.2"/>

  <!-- tiny 청년마을 mini-mark bottom-right -->
  <g transform="translate(740,448) scale(0.55)">
    <ellipse cx="35" cy="6" rx="22" ry="5" fill="none" stroke="#1F4E79" stroke-width="3"/>
    <circle cx="35" cy="14" r="11" fill="none" stroke="#1F4E79" stroke-width="3"/>
    <path d="M35,26 L18,52 Q14,57 19,58 L30,58 L35,50 L40,58 L51,58 Q56,57 52,52 Z"
          fill="none" stroke="#1F4E79" stroke-width="3"/>
    <circle cx="10" cy="20" r="3" fill="#B8C534"/>
    <circle cx="58" cy="30" r="3" fill="#7BC4E2"/>
    <text x="78" y="48" font-size="20" font-weight="800" fill="#1F4E79" letter-spacing="-0.5">청년마을</text>
  </g>
</svg>
